#N canvas 595 123 1203 884 10;
#X obj 110 13 p_notein;
#X obj 110 65 p_noteclean;
#X obj 923 620 p_ctlin;
#X obj 871 698 *~;
#X obj 866 724 dac~;
#X obj 30 315 sig~;
#X obj 384 685 *~;
#X obj 867 671 hip~ 1;
#X obj 142 377 osc~;
#X obj 114 493 *~;
#X obj 171 539 osc~;
#X obj 482 267 p_ctlin;
#X floatatom 189 413 5 0 0 0 - - - 0 0 1, f 5;
#X obj 132 315 sig~;
#X obj 96 176 f;
#X obj 224 99 p_envelop;
#N canvas 0 22 450 300 (subpatch) 0;
#X array wave1 16 float 1 black black;
#A 0 0 0 0 0 0.622047 0.338583 -0.307087 0.181102 -0.511811 -0.165354
-0.779528 -0.559055 0 0 0 0;
#X coords 0 1 15 -1 200 140 1;
#X restore 751 106 graph;
#N canvas 98 624 1060 373 arrayCtls 0;
#X obj 25 23 p_ctlin;
#X obj 25 85 expr ($f1 * 2) -1;
#X obj 25 147 tabwrite wave1;
#X obj 25 107 t f b;
#X obj 217 25 p_ctlin;
#X obj 217 87 expr ($f1 * 2) -1;
#X obj 217 149 tabwrite wave1;
#X obj 217 109 t f b;
#X obj 411 26 p_ctlin;
#X obj 411 88 expr ($f1 * 2) -1;
#X obj 411 150 tabwrite wave1;
#X obj 411 110 t f b;
#X obj 605 26 p_ctlin;
#X obj 605 88 expr ($f1 * 2) -1;
#X obj 605 150 tabwrite wave1;
#X obj 605 110 t f b;
#X obj 27 177 p_ctlin;
#X obj 27 239 expr ($f1 * 2) -1;
#X obj 27 301 tabwrite wave1;
#X obj 27 261 t f b;
#X obj 219 179 p_ctlin;
#X obj 219 241 expr ($f1 * 2) -1;
#X obj 219 303 tabwrite wave1;
#X obj 219 263 t f b;
#X obj 413 180 p_ctlin;
#X obj 413 242 expr ($f1 * 2) -1;
#X obj 413 304 tabwrite wave1;
#X obj 413 264 t f b;
#X obj 607 180 p_ctlin;
#X obj 607 242 expr ($f1 * 2) -1;
#X obj 607 304 tabwrite wave1;
#X obj 607 264 t f b;
#X msg 106 123 4;
#X msg 298 126 5;
#X msg 492 126 6;
#X msg 685 127 7;
#X msg 108 277 8;
#X msg 300 280 9;
#X msg 494 280 10;
#X msg 688 281 11;
#X obj 866 71 loadbang;
#X obj 856 203 tabwrite wave1;
#X msg 863 134 0 0 \, 0 1 \, 0 2 \, 0 3;
#X msg 918 162 0 12 \, 0 13 \, 0 14 \, 0 15;
#X connect 0 0 1 0;
#X connect 1 0 3 0;
#X connect 3 0 2 0;
#X connect 3 1 32 0;
#X connect 4 0 5 0;
#X connect 5 0 7 0;
#X connect 7 0 6 0;
#X connect 7 1 33 0;
#X connect 8 0 9 0;
#X connect 9 0 11 0;
#X connect 11 0 10 0;
#X connect 11 1 34 0;
#X connect 12 0 13 0;
#X connect 13 0 15 0;
#X connect 15 0 14 0;
#X connect 15 1 35 0;
#X connect 16 0 17 0;
#X connect 17 0 19 0;
#X connect 19 0 18 0;
#X connect 19 1 36 0;
#X connect 20 0 21 0;
#X connect 21 0 23 0;
#X connect 23 0 22 0;
#X connect 23 1 37 0;
#X connect 24 0 25 0;
#X connect 25 0 27 0;
#X connect 27 0 26 0;
#X connect 27 1 38 0;
#X connect 28 0 29 0;
#X connect 29 0 31 0;
#X connect 31 0 30 0;
#X connect 31 1 39 0;
#X connect 32 0 2 1;
#X connect 33 0 6 1;
#X connect 34 0 10 1;
#X connect 35 0 14 1;
#X connect 36 0 18 1;
#X connect 37 0 22 1;
#X connect 38 0 26 1;
#X connect 39 0 30 1;
#X connect 40 0 42 0;
#X connect 40 0 43 0;
#X connect 42 0 41 0;
#X connect 43 0 41 0;
#X restore 751 66 pd arrayCtls;
#X text 830 67 SET THESE TO CONTROLS TO CHANGE THE MADNESS;
#X obj 224 227 s~ p_envelop;
#X obj 402 663 r~ p_envelop;
#X obj 342 527 phasor~;
#X obj 337 496 sig~;
#X obj 345 612 tabread4~ wave1;
#X obj 362 433 osc~;
#X obj 199 442 sig~ 1;
#X obj 164 435 +~ 1;
#X obj 119 254 * 2;
#X obj 489 196 p_ctlin;
#X obj 141 352 +~;
#X msg 205 384 1;
#X obj 443 339 expr 1 + (($f1 - 0.5) / 20);
#X obj 600 530 tabread~;
#X obj 612 498 +~ 1;
#X obj 610 475 *~ 13;
#X obj 246 567 abs~, f 5;
#X obj 450 608 tabread4~ wave1;
#X floatatom 533 575 5 0 0 0 - - - 0 0 1, f 5;
#X obj 924 693 p_sigrapher;
#X obj 351 585 +~ 4;
#X obj 351 562 *~ 7;
#X obj 861 641 r~ ut;
#X obj 564 821 s~ ut;
#X obj 586 647 delwrite~ flange 1200;
#X obj 601 685 delread~ flange 600;
#X obj 626 706 delread~ flange 300;
#X obj 641 731 delread~ flange 150;
#X obj 603 576 r~ ut;
#X obj 667 607 *~;
#X floatatom 685 583 5 0 0 0 - - - 0 0 1, f 5;
#X msg 723 522 0;
#X obj 710 555 hsl 128 15 0 0.9 0 0 empty empty empty -2 -8 0 10 #fcfcfc
#000000 #000000 3090 1 0 1;
#X text 682 237 nrmlze mult 24 (1.3);
#X text 674 306 nrmlze mult 1 (0.5);
#X msg 779 522 0.219;
#X obj 792 496 loadbang;
#X msg 530 550 7;
#X obj 514 527 loadbang;
#X obj 641 790 *~ 0.3;
#X obj 52 606 p_ctlin;
#X obj 289 642 *~;
#X text 741 396 Gb Db Ab Eb Ab;
#X connect 0 0 1 0;
#X connect 0 1 1 1;
#X connect 0 2 1 2;
#X connect 1 0 14 0;
#X connect 1 0 22 0;
#X connect 1 2 15 1;
#X connect 1 3 15 2;
#X connect 2 0 3 1;
#X connect 3 0 4 0;
#X connect 3 0 4 1;
#X connect 3 0 38 0;
#X connect 5 0 9 0;
#X connect 6 0 43 0;
#X connect 6 0 42 0;
#X connect 7 0 3 0;
#X connect 8 0 26 0;
#X connect 9 0 10 0;
#X connect 10 0 35 0;
#X connect 10 0 60 0;
#X connect 11 0 31 0;
#X connect 12 0 26 1;
#X connect 13 0 29 0;
#X connect 14 0 5 0;
#X connect 14 0 27 0;
#X connect 15 0 19 0;
#X connect 20 0 6 1;
#X connect 23 0 6 0;
#X connect 26 0 9 1;
#X connect 27 0 13 0;
#X connect 28 0 29 1;
#X connect 29 0 8 0;
#X connect 30 0 12 0;
#X connect 31 0 12 0;
#X connect 33 0 32 0;
#X connect 34 0 33 0;
#X connect 35 0 40 0;
#X connect 36 0 6 0;
#X connect 37 0 36 1;
#X connect 39 0 23 0;
#X connect 39 0 36 0;
#X connect 40 0 39 0;
#X connect 41 0 7 0;
#X connect 44 0 58 0;
#X connect 45 0 58 0;
#X connect 46 0 58 0;
#X connect 47 0 48 0;
#X connect 48 0 43 0;
#X connect 49 0 48 1;
#X connect 50 0 51 0;
#X connect 51 0 49 0;
#X connect 54 0 51 0;
#X connect 55 0 54 0;
#X connect 56 0 37 0;
#X connect 57 0 56 0;
#X connect 58 0 42 0;
#X connect 59 0 60 1;
#X connect 60 0 6 0;
