#N canvas 649 145 1203 848 10;
#X obj 110 53 p_notein;
#X obj 110 112 p_noteclean;
#X obj 519 700 p_ctlin;
#X obj 467 778 *~;
#X obj 462 804 dac~;
#X obj 461 610 line~;
#X msg 460 589 \$1 60;
#X obj 30 315 sig~;
#X obj 443 664 *~;
#X obj 268 239 / 127;
#X obj 728 678 p_sigrapher;
#X obj 420 729 hip~ 1;
#X obj 227 535 osc~;
#X obj 199 651 *~;
#X obj 256 697 osc~;
#X obj 249 592 +~ 4;
#X obj 481 251 p_ctlin;
#X floatatom 525 409 5 0 0 0 - - -;
#X obj 132 315 sig~;
#X obj 96 176 f;
#X obj 31 248 * 4;
#X obj 317 139 p_envelop;
#X obj 527 375 * 2;
#X connect 0 0 1 0;
#X connect 0 1 1 1;
#X connect 0 2 1 2;
#X connect 1 0 19 0;
#X connect 1 2 9 0;
#X connect 1 2 21 1;
#X connect 1 3 21 2;
#X connect 2 0 3 1;
#X connect 3 0 4 0;
#X connect 3 0 4 1;
#X connect 3 0 10 0;
#X connect 5 0 8 1;
#X connect 6 0 5 0;
#X connect 7 0 13 0;
#X connect 8 0 11 0;
#X connect 11 0 3 0;
#X connect 12 0 15 0;
#X connect 13 0 14 0;
#X connect 14 0 8 0;
#X connect 15 0 13 1;
#X connect 16 0 22 0;
#X connect 18 0 12 0;
#X connect 19 0 7 0;
#X connect 19 0 20 0;
#X connect 20 0 18 0;
#X connect 21 0 8 1;
#X connect 22 0 15 1;
#X connect 22 0 17 0;
