#N canvas -868 -1055 1203 884 10;
#X obj 110 13 p_notein;
#X obj 110 65 p_noteclean;
#X obj 871 698 *~;
#X obj 866 724 dac~;
#X obj 30 315 sig~;
#X obj 384 685 *~;
#X obj 142 377 osc~;
#X obj 114 493 *~;
#X obj 171 539 osc~;
#X floatatom 189 413 5 0 0 0 - - - 0 0 1, f 5;
#X obj 132 315 sig~;
#X obj 96 176 f;
#N canvas 0 22 450 300 (subpatch) 0;
#X array wave1 16 float 1 black black;
#A 0 0 0 0 0 0.622047 0.338583 -0.307087 0.181102 -0.511811 -0.165354
-0.779528 -0.559055 0 0 0 0;
#X coords 0 1 15 -1 200 140 1;
#X restore 751 106 graph;
#N canvas 98 581 1060 373 arrayCtls 0;
#X obj 25 23 p_ctlin;
#X obj 25 85 expr ($f1 * 2) -1;
#X obj 25 147 tabwrite wave1;
#X obj 25 107 t f b;
#X obj 217 25 p_ctlin;
#X obj 217 87 expr ($f1 * 2) -1;
#X obj 217 149 tabwrite wave1;
#X obj 217 109 t f b;
#X obj 411 26 p_ctlin;
#X obj 411 88 expr ($f1 * 2) -1;
#X obj 411 150 tabwrite wave1;
#X obj 411 110 t f b;
#X obj 605 26 p_ctlin;
#X obj 605 88 expr ($f1 * 2) -1;
#X obj 605 150 tabwrite wave1;
#X obj 605 110 t f b;
#X obj 27 177 p_ctlin;
#X obj 27 239 expr ($f1 * 2) -1;
#X obj 27 301 tabwrite wave1;
#X obj 27 261 t f b;
#X obj 219 179 p_ctlin;
#X obj 219 241 expr ($f1 * 2) -1;
#X obj 219 303 tabwrite wave1;
#X obj 219 263 t f b;
#X obj 413 180 p_ctlin;
#X obj 413 242 expr ($f1 * 2) -1;
#X obj 413 304 tabwrite wave1;
#X obj 413 264 t f b;
#X obj 607 180 p_ctlin;
#X obj 607 242 expr ($f1 * 2) -1;
#X obj 607 304 tabwrite wave1;
#X obj 607 264 t f b;
#X msg 106 123 4;
#X msg 298 126 5;
#X msg 492 126 6;
#X msg 685 127 7;
#X msg 108 277 8;
#X msg 300 280 9;
#X msg 494 280 10;
#X msg 688 281 11;
#X obj 866 71 loadbang;
#X obj 856 203 tabwrite wave1;
#X msg 863 134 0 0 \, 0 1 \, 0 2 \, 0 3;
#X msg 918 162 0 12 \, 0 13 \, 0 14 \, 0 15;
#X connect 0 0 1 0;
#X connect 1 0 3 0;
#X connect 3 0 2 0;
#X connect 3 1 32 0;
#X connect 4 0 5 0;
#X connect 5 0 7 0;
#X connect 7 0 6 0;
#X connect 7 1 33 0;
#X connect 8 0 9 0;
#X connect 9 0 11 0;
#X connect 11 0 10 0;
#X connect 11 1 34 0;
#X connect 12 0 13 0;
#X connect 13 0 15 0;
#X connect 15 0 14 0;
#X connect 15 1 35 0;
#X connect 16 0 17 0;
#X connect 17 0 19 0;
#X connect 19 0 18 0;
#X connect 19 1 36 0;
#X connect 20 0 21 0;
#X connect 21 0 23 0;
#X connect 23 0 22 0;
#X connect 23 1 37 0;
#X connect 24 0 25 0;
#X connect 25 0 27 0;
#X connect 27 0 26 0;
#X connect 27 1 38 0;
#X connect 28 0 29 0;
#X connect 29 0 31 0;
#X connect 31 0 30 0;
#X connect 31 1 39 0;
#X connect 32 0 2 1;
#X connect 33 0 6 1;
#X connect 34 0 10 1;
#X connect 35 0 14 1;
#X connect 36 0 18 1;
#X connect 37 0 22 1;
#X connect 38 0 26 1;
#X connect 39 0 30 1;
#X connect 40 0 42 0;
#X connect 40 0 43 0;
#X connect 42 0 41 0;
#X connect 43 0 41 0;
#X restore 751 66 pd arrayCtls;
#X text 830 67 SET THESE TO CONTROLS TO CHANGE THE MADNESS;
#X obj 220 237 s~ p_envelop;
#X obj 402 663 r~ p_envelop;
#X obj 342 527 phasor~;
#X obj 337 496 sig~;
#X obj 345 612 tabread4~ wave1;
#X obj 362 433 osc~;
#X obj 199 442 sig~ 1;
#X obj 164 435 +~ 1;
#X obj 119 254 * 2;
#X obj 141 352 +~;
#X msg 205 384 1;
#X obj 427 343 expr 1 + (($f1 - 0.5) / 20);
#X obj 600 530 tabread~;
#X obj 612 498 +~ 1;
#X obj 610 475 *~ 13;
#X obj 246 567 abs~, f 5;
#X obj 450 608 tabread4~ wave1;
#X floatatom 533 575 5 0 0 0 - - - 0 0 1, f 5;
#X obj 924 693 p_sigrapher;
#X obj 351 585 +~ 4;
#X obj 351 562 *~ 7;
#X obj 861 641 r~ ut;
#X obj 564 821 s~ ut;
#X obj 586 647 delwrite~ flange 1200;
#X obj 601 685 delread~ flange 600;
#X obj 626 706 delread~ flange 300;
#X obj 641 731 delread~ flange 150;
#X obj 603 576 r~ ut;
#X obj 667 607 *~;
#X floatatom 685 583 5 0 0 0 - - - 0 0 1, f 5;
#X msg 723 522 0;
#X obj 710 555 hsl 128 15 0 0.9 0 0 empty empty empty -2 -8 0 10 #fcfcfc
#000000 #000000 3090 1 0 1;
#X text 657 194 nrmlze mult 24 (1.3);
#X text 658 310 nrmlze mult 1 (0.5);
#X msg 779 522 0.219;
#X obj 792 496 loadbang;
#X msg 530 550 7;
#X obj 514 527 loadbang;
#X obj 641 790 *~ 0.3;
#X obj 289 642 *~;
#X text 741 396 Gb Db Ab Eb Ab;
#X obj 456 175 p_ctlins;
#X msg 663 215 101 3 1 1 24 15.685;
#X obj 466 271 p_ctlins;
#X msg 660 285 102 3 1 1 1 0.425197;
#X obj 46 674 p_ctlins;
#X msg 241 679 103 3 1 1 1 0.393701;
#X obj 1017 171 bng 40 250 50 0 empty empty empty 17 7 0 10 #fc0400
#000000 #000000 1;
#X obj 1067 171 bng 40 250 50 0 empty empty empty 17 7 0 10 #00fc04
#000000 #000000 1;
#X msg 1018 226 0;
#X msg 1069 227 1;
#N canvas 173 611 591 331 dsp 0;
#X obj 101 101 cnv 15 57 57 empty \$0canv empty 20 12 0 14 #d8fcd8
#fcfcfc 0;
#X obj 114 114 tgl 30 0 empty empty ON 7 15 0 14 #14e814 #14e814 #fcfcfc
1 1 1;
#X obj 214 139 select 1;
#X msg 236 64 label OFF \, color 13 13 0 \, label_pos 4 15;
#X msg 235 43 label ON \, color 16 16 0 \, label_pos 7 15;
#X msg 247 173 color 6;
#X msg 366 174 color 3;
#X obj 295 237 s \$0canv;
#X obj 29 193 print;
#X obj 114 202 outlet;
#X obj 66 15 inlet;
#X obj 150 27 select 0 1;
#X msg 113 59 0;
#X msg 148 59 1;
#X connect 1 0 2 0;
#X connect 1 0 8 0;
#X connect 1 0 9 0;
#X connect 2 0 4 0;
#X connect 2 0 5 0;
#X connect 2 1 3 0;
#X connect 2 1 6 0;
#X connect 3 0 1 0;
#X connect 4 0 1 0;
#X connect 5 0 7 0;
#X connect 6 0 7 0;
#X connect 10 0 11 0;
#X connect 11 0 3 0;
#X connect 11 0 12 0;
#X connect 11 1 4 0;
#X connect 11 1 13 0;
#X connect 12 0 1 0;
#X connect 13 0 1 0;
#X coords 0 -1 1 1 59 59 2 100 100;
#X restore 1018 254 pd dsp;
#X obj 1018 318 switch~;
#X obj 831 289 p_ctlinS;
#X msg 1111 290 55 1 1 1 1 0;
#X obj 923 620 p_ctlins;
#X msg 1128 649 104 3 1 1 1 0.543307;
#X obj 867 671 hip~ 60;
#X obj 220 110 p_envelopS;
#X msg 360 160 29 1 14 731 0 -1;
#X connect 0 0 1 0;
#X connect 0 1 1 1;
#X connect 0 2 1 2;
#X connect 1 0 11 0;
#X connect 1 0 18 0;
#X connect 1 2 73 1;
#X connect 1 3 73 2;
#X connect 2 0 3 0;
#X connect 2 0 3 1;
#X connect 2 0 33 0;
#X connect 4 0 7 0;
#X connect 5 0 38 0;
#X connect 5 0 37 0;
#X connect 6 0 22 0;
#X connect 7 0 8 0;
#X connect 8 0 30 0;
#X connect 8 0 54 0;
#X connect 9 0 22 1;
#X connect 10 0 24 0;
#X connect 11 0 4 0;
#X connect 11 0 23 0;
#X connect 16 0 5 1;
#X connect 19 0 5 0;
#X connect 22 0 7 1;
#X connect 23 0 10 0;
#X connect 24 0 6 0;
#X connect 25 0 9 0;
#X connect 26 0 9 0;
#X connect 28 0 27 0;
#X connect 29 0 28 0;
#X connect 30 0 35 0;
#X connect 31 0 5 0;
#X connect 32 0 31 1;
#X connect 34 0 19 0;
#X connect 34 0 31 0;
#X connect 35 0 34 0;
#X connect 36 0 72 0;
#X connect 39 0 53 0;
#X connect 40 0 53 0;
#X connect 41 0 53 0;
#X connect 42 0 43 0;
#X connect 43 0 38 0;
#X connect 44 0 43 1;
#X connect 45 0 46 0;
#X connect 46 0 44 0;
#X connect 49 0 46 0;
#X connect 50 0 49 0;
#X connect 51 0 32 0;
#X connect 52 0 51 0;
#X connect 53 0 37 0;
#X connect 54 0 5 0;
#X connect 56 0 24 1;
#X connect 56 1 57 0;
#X connect 57 0 56 1;
#X connect 58 0 26 0;
#X connect 58 1 59 0;
#X connect 59 0 58 1;
#X connect 60 0 54 1;
#X connect 60 1 61 0;
#X connect 61 0 60 1;
#X connect 62 0 64 0;
#X connect 63 0 65 0;
#X connect 64 0 66 0;
#X connect 65 0 66 0;
#X connect 66 0 67 0;
#X connect 68 0 66 0;
#X connect 68 1 69 0;
#X connect 69 0 68 1;
#X connect 70 0 2 1;
#X connect 70 1 71 0;
#X connect 71 0 70 1;
#X connect 72 0 2 0;
#X connect 73 0 15 0;
#X connect 73 1 74 0;
#X connect 74 0 73 9;
